Coordinates
version=1
nRows=32
nColumns=12
inDegrees=yes

Units are S.I. units (second, meters, Newtons, ...)
Angles are in degrees

endheader
time	SC_y	SC_z	SC_x	AC_y	AC_z	AC_x	GH_y	GH_z	GH_yy	EL_x	PS_y
       0.0              -43.62          16.06         0.5436          60.22            5.0          15.83          53.98          88.85         -86.19          84.35          151.9
   0.02725              -43.62          16.06          0.545          60.22          5.001          15.83          53.97          88.84         -86.19          84.35          151.9
    0.0545              -43.62          16.06         0.5465          60.22          5.002          15.83          53.95          88.84          -86.2          84.34          151.9
   0.08175              -43.61          16.06         0.5482          60.21          5.002          15.82          53.94          88.83          -86.2          84.34          151.9
     0.109              -43.61          16.07         0.5499          60.21          5.003          15.82          53.92          88.82         -86.21          84.33          151.9
    0.1362              -43.61          16.07         0.5517           60.2          5.004          15.82          53.91          88.81         -86.21          84.33          151.9
    0.1635              -43.61          16.07         0.5536           60.2          5.005          15.81          53.89           88.8         -86.22          84.32          151.9
    0.1907               -43.6          16.07         0.5557          60.19          5.005          15.81          53.87          88.79         -86.22          84.32          151.9
     0.218               -43.6          16.08          0.558          60.18          5.006           15.8          53.85          88.78         -86.23          84.31          151.9
    0.2452              -43.59          16.08         0.5604          60.18          5.007           15.8          53.82          88.77         -86.24          84.31          151.8
    0.2725              -43.59          16.08         0.5629          60.17          5.008           15.8           53.8          88.76         -86.24           84.3          151.8
    0.2997              -43.59          16.09         0.5657          60.16          5.009          15.79          53.77          88.74         -86.25          84.29          151.8
     0.327              -43.58          16.09         0.5687          60.15          5.011          15.79          53.75          88.73         -86.26          84.29          151.8
    0.3542              -43.58          16.09         0.5719          60.14          5.012          15.78          53.72          88.71         -86.27          84.28          151.8
    0.3815              -43.57           16.1         0.5754          60.13          5.013          15.77          53.68           88.7         -86.28          84.27          151.8
    0.4087              -43.56           16.1         0.5792          60.12          5.015          15.77          53.65          88.68         -86.29          84.26          151.8
     0.436              -43.56          16.11         0.5833          60.11          5.017          15.76          53.61          88.66          -86.3          84.25          151.7
    0.4632              -43.55          16.11         0.5878           60.1          5.018          15.75          53.57          88.64         -86.32          84.23          151.7
    0.4905              -43.54          16.12         0.5927          60.08           5.02          15.74          53.52          88.62         -86.33          84.22          151.7
    0.5177              -43.53          16.12          0.598          60.07          5.023          15.73          53.47          88.59         -86.35          84.21          151.7
     0.545              -43.52          16.13         0.6039          60.05          5.025          15.72          53.42          88.56         -86.36          84.19          151.7
    0.5722              -43.51          16.14         0.6104          60.03          5.028          15.71          53.36          88.53         -86.38          84.17          151.6
    0.5995               -43.5          16.15         0.6175          60.01          5.031           15.7          53.29           88.5          -86.4          84.16          151.6
    0.6267              -43.49          16.16         0.6254          59.99          5.034          15.68          53.22          88.46         -86.43          84.13          151.6
     0.654              -43.47          16.17         0.6342          59.96          5.037          15.67          53.14          88.42         -86.45          84.11          151.5
    0.6812              -43.46          16.18         0.6441          59.93          5.041          15.65          53.04          88.37         -86.48          84.09          151.5
    0.7085              -43.44          16.19         0.6551           59.9          5.046          15.63          52.94          88.32         -86.52          84.06          151.4
    0.7357              -43.42          16.21         0.6674          59.87          5.051          15.61          52.83          88.26         -86.55          84.02          151.4
     0.763               -43.4          16.22         0.6814          59.83          5.057          15.58          52.69          88.19         -86.59          83.99          151.3
    0.7902              -43.37          16.24         0.6973          59.78          5.063          15.55          52.55          88.12         -86.64          83.94          151.2
    0.8175              -43.34          16.26         0.7154          59.73           5.07          15.52          52.38          88.03         -86.69           83.9          151.2
    0.8447              -43.31          16.29         0.7362          59.67          5.079          15.48          52.18          87.93         -86.75          83.84          151.1
